<?xml version="1.0" standalone="no"?>
<!DOCTYPE svg PUBLIC "-//W3C//DTD SVG 20010904//EN"
 "http://www.w3.org/TR/2001/REC-SVG-20010904/DTD/svg10.dtd">
<svg version="1.0" xmlns="http://www.w3.org/2000/svg"
 width="1024.000000pt" height="1024.000000pt" viewBox="0 0 1024.000000 1024.000000"
 preserveAspectRatio="xMidYMid meet">
<metadata>
Created by potrace 1.14, written by Peter Selinger 2001-2017
</metadata>
<g transform="translate(0.000000,1024.000000) scale(0.100000,-0.100000)"
fill="#000000" stroke="none">
<path d="M1906 9602 c-2 -1 -34 -5 -72 -7 -71 -5 -121 -11 -164 -20 -14 -3
-36 -7 -49 -10 -14 -2 -52 -14 -85 -25 -34 -11 -64 -20 -68 -20 -17 -1 -216
-106 -263 -139 -72 -51 -143 -109 -195 -162 -51 -52 -107 -115 -112 -127 -2
-4 -29 -46 -61 -94 -31 -47 -57 -93 -57 -102 0 -9 -4 -16 -9 -16 -5 0 -11 -10
-15 -22 -3 -13 -6 -25 -7 -28 -1 -3 -10 -22 -20 -42 -11 -21 -17 -38 -13 -38
4 0 2 -6 -3 -12 -13 -17 -50 -165 -62 -248 -6 -40 -10 -1337 -10 -3370 0
-2816 2 -3318 14 -3395 14 -89 70 -281 86 -299 5 -6 9 -18 9 -28 0 -10 5 -18
10 -18 6 0 10 -7 10 -15 0 -39 148 -251 237 -341 180 -180 425 -314 658 -359
17 -3 41 -8 55 -10 14 -3 79 -8 144 -11 66 -2 123 -7 127 -10 4 -2 10 0 13 5
3 5 21 5 41 1 19 -4 35 -4 35 0 0 4 18 4 40 0 22 -4 40 -4 40 0 0 4 20 4 45 0
25 -4 45 -4 45 -1 0 7 84 5 103 -2 6 -2 21 -1 32 3 11 4 31 4 45 0 14 -4 34
-4 45 0 11 4 32 4 47 -1 15 -4 30 -4 33 0 2 5 23 5 45 1 22 -4 40 -4 40 0 0 4
20 4 45 0 25 -4 45 -4 45 -1 0 3 21 5 47 3 43 -2 64 -2 106 -1 6 0 26 0 42 0
17 -1 39 -1 50 -1 11 1 77 0 147 0 70 -1 132 1 137 4 5 4 12 2 15 -3 3 -5 21
-5 41 -1 19 4 37 4 40 0 3 -4 21 -4 40 0 19 4 37 4 40 0 3 -4 21 -4 40 0 19 4
37 4 40 0 3 -4 21 -4 40 0 19 4 37 4 40 0 3 -4 21 -4 40 0 19 4 37 4 40 0 3
-4 21 -4 40 0 19 4 37 4 40 0 3 -4 20 -5 37 -1 33 7 92 5 116 -4 6 -2 12 -1
12 3 0 7 126 6 147 -2 7 -3 15 -2 17 3 3 4 22 5 43 2 21 -4 56 -4 79 -1 22 4
49 3 60 0 10 -4 30 -4 44 0 14 4 35 4 46 0 11 -5 26 -5 33 0 7 4 28 4 46 0 18
-4 38 -4 45 0 7 4 27 4 46 0 20 -5 34 -4 34 2 0 5 5 6 10 3 6 -4 43 -6 83 -5
39 1 79 1 87 1 80 -3 183 0 191 4 5 4 9 2 9 -3 0 -5 17 -6 40 -2 22 4 42 5 45
2 7 -7 143 -4 155 3 5 3 11 1 14 -4 3 -5 21 -5 41 -1 19 4 37 4 40 0 3 -4 21
-4 40 0 19 4 37 4 40 0 3 -4 21 -4 40 0 19 4 37 4 40 0 3 -4 21 -4 40 0 19 4
37 4 40 0 3 -4 21 -4 40 0 19 4 37 4 40 0 3 -4 21 -4 40 0 19 4 37 4 40 0 3
-4 22 -4 42 1 21 4 38 8 38 8 0 -6 87 -14 90 -9 3 4 21 4 40 0 19 -4 35 -4 35
0 0 4 18 4 40 0 22 -4 40 -4 40 0 0 4 20 4 45 0 25 -4 45 -4 45 -1 0 7 84 5
103 -2 6 -2 21 -1 32 3 11 4 31 4 45 0 14 -4 34 -4 45 0 11 4 32 4 47 -1 15
-4 30 -4 33 0 2 5 23 5 45 1 22 -4 40 -4 40 0 0 4 20 4 45 0 25 -4 45 -4 45
-1 0 3 21 5 47 3 43 -2 64 -2 106 -1 6 0 26 0 42 0 17 -1 39 -1 50 -1 11 1 77
0 147 0 70 -1 132 1 137 4 5 4 12 2 15 -3 3 -5 21 -5 41 -1 19 4 37 4 40 0 3
-4 21 -4 40 0 19 4 37 4 40 0 3 -4 21 -4 40 0 19 4 37 4 40 0 3 -4 21 -4 40 0
19 4 37 4 40 0 3 -4 21 -4 40 0 19 4 37 4 40 0 3 -4 21 -4 40 0 19 4 37 4 40
0 3 -4 20 -5 37 -1 33 7 92 5 116 -4 6 -2 12 -1 12 3 0 7 126 6 147 -2 7 -3
15 -1 17 3 3 5 23 5 43 2 21 -4 49 -4 63 -1 14 3 42 3 63 -1 20 -3 39 -3 42 1
3 4 23 4 45 0 22 -4 40 -4 40 0 0 4 20 4 45 0 25 -4 47 -5 49 -3 2 3 42 6 88
8 81 4 117 9 168 20 14 3 36 7 50 10 75 14 349 128 370 154 3 3 30 22 60 42
213 142 387 371 479 634 18 50 32 91 32 93 -1 1 -1 3 0 5 2 6 8 35 14 67 3 19
9 49 13 65 4 17 7 1533 9 3370 2 2904 0 3350 -13 3415 -8 41 -16 85 -19 97 -2
13 -6 26 -9 31 -3 5 -7 22 -10 38 -7 35 -92 241 -106 254 -5 5 -24 37 -44 75
-15 27 -115 152 -157 195 -54 56 -162 145 -223 184 -89 57 -231 125 -296 141
-3 1 -12 4 -20 8 -8 3 -28 9 -45 13 -16 4 -34 8 -40 10 -46 13 -140 26 -212
29 -34 2 -66 6 -71 9 -6 4 -13 2 -16 -3 -3 -5 -21 -5 -41 -1 -21 5 -35 4 -35
-2 0 -5 -5 -6 -10 -3 -6 4 -43 6 -83 5 -39 -1 -79 -1 -87 -1 -80 3 -183 0
-191 -4 -5 -4 -9 -2 -9 3 0 5 -17 6 -40 2 -22 -4 -42 -5 -45 -2 -7 7 -143 4
-155 -3 -5 -3 -11 -1 -14 4 -3 5 -21 5 -41 1 -19 -4 -37 -4 -40 0 -3 4 -21 4
-40 0 -19 -4 -37 -4 -40 0 -3 4 -21 4 -40 0 -19 -4 -37 -4 -40 0 -3 4 -21 4
-40 0 -19 -4 -37 -4 -40 0 -3 4 -21 4 -40 0 -19 -4 -37 -4 -40 0 -3 4 -21 4
-40 0 -19 -4 -37 -4 -40 0 -3 4 -22 4 -42 -1 -21 -4 -40 -7 -43 -7 -36 10 -81
14 -85 8 -3 -4 -21 -4 -40 0 -19 4 -35 4 -35 0 0 -4 -18 -4 -40 0 -22 4 -40 4
-40 0 0 -4 -20 -4 -45 0 -25 4 -45 4 -45 1 0 -7 -84 -5 -103 2 -6 2 -21 1 -32
-3 -11 -4 -31 -4 -45 0 -14 4 -34 4 -45 0 -11 -4 -32 -4 -47 1 -15 4 -30 4
-33 0 -2 -5 -23 -5 -45 -1 -22 4 -40 4 -40 0 0 -4 -20 -4 -45 0 -25 4 -45 4
-45 1 0 -3 -21 -5 -47 -3 -43 2 -64 2 -105 1 -7 0 -26 0 -43 0 -16 1 -39 1
-50 1 -11 -1 -77 0 -147 0 -70 1 -132 -1 -137 -4 -5 -4 -12 -2 -15 3 -3 5 -21
5 -41 1 -19 -4 -37 -4 -40 0 -3 4 -21 4 -40 0 -19 -4 -37 -4 -40 0 -3 4 -21 4
-40 0 -19 -4 -37 -4 -40 0 -3 4 -21 4 -40 0 -19 -4 -37 -4 -40 0 -3 4 -21 4
-40 0 -19 -4 -37 -4 -40 0 -3 4 -21 4 -40 0 -19 -4 -37 -4 -40 0 -3 4 -20 5
-37 1 -33 -7 -92 -5 -115 4 -7 2 -13 1 -13 -3 0 -7 -126 -6 -147 2 -7 3 -15 2
-17 -3 -3 -4 -22 -5 -43 -2 -21 4 -56 4 -79 1 -22 -4 -49 -3 -60 0 -10 4 -30
4 -44 0 -14 -4 -35 -4 -46 0 -11 5 -26 5 -33 0 -7 -4 -28 -4 -46 0 -18 4 -38
4 -45 0 -7 -4 -27 -4 -46 0 -20 5 -34 4 -34 -2 0 -5 -5 -6 -10 -3 -6 4 -43 6
-83 5 -39 -1 -79 -1 -87 -1 -80 3 -183 0 -191 -4 -5 -4 -9 -2 -9 3 0 5 -17 6
-40 2 -22 -4 -42 -5 -45 -2 -7 7 -143 4 -155 -3 -5 -3 -11 -1 -14 4 -3 5 -21
5 -41 1 -19 -4 -37 -4 -40 0 -3 4 -21 4 -40 0 -19 -4 -37 -4 -40 0 -3 4 -21 4
-40 0 -19 -4 -37 -4 -40 0 -3 4 -21 4 -40 0 -19 -4 -37 -4 -40 0 -3 4 -21 4
-40 0 -19 -4 -37 -4 -40 0 -3 4 -21 4 -40 0 -19 -4 -37 -4 -40 0 -3 4 -22 4
-42 -1 -21 -4 -38 -8 -38 -8 0 6 -87 14 -90 9 -3 -4 -21 -4 -40 0 -19 4 -35 4
-35 0 0 -4 -18 -4 -40 0 -22 4 -40 4 -40 0 0 -4 -20 -4 -45 0 -25 4 -45 4 -45
1 0 -7 -84 -5 -103 2 -6 2 -21 1 -32 -3 -11 -4 -31 -4 -45 0 -14 4 -34 4 -45
0 -11 -4 -32 -4 -47 1 -15 4 -30 4 -33 0 -2 -5 -23 -5 -45 -1 -22 4 -40 4 -40
0 0 -4 -20 -4 -45 0 -25 4 -45 4 -45 1 0 -3 -24 -5 -52 -3 -29 2 -60 3 -68 3
-8 -1 -28 -1 -45 0 -16 0 -37 0 -45 0 -29 -1 -76 -1 -173 2 -54 1 -100 1 -101
-1z m654 -2271 c92 -35 142 -72 321 -241 26 -25 80 -74 120 -110 40 -36 87
-78 104 -95 18 -16 72 -66 120 -110 48 -44 107 -99 131 -121 24 -23 44 -40 44
-39 0 2 19 -15 43 -38 23 -23 87 -82 141 -132 54 -49 117 -107 140 -128 22
-21 74 -68 115 -105 78 -70 108 -98 215 -199 36 -34 66 -60 66 -58 0 1 22 -18
48 -44 27 -25 91 -84 142 -131 51 -47 105 -96 120 -110 15 -14 72 -65 126
-115 126 -116 130 -121 169 -180 38 -58 64 -131 69 -189 2 -23 5 -45 6 -51 1
-5 2 -12 1 -15 -1 -3 -4 -23 -5 -45 -2 -22 -9 -60 -17 -85 -7 -25 -13 -47 -14
-50 0 -3 -6 -14 -12 -25 -7 -11 -20 -34 -30 -52 -10 -18 -32 -47 -49 -65 -32
-35 -141 -135 -353 -328 -45 -41 -99 -91 -120 -110 -20 -19 -80 -74 -132 -121
-105 -97 -110 -102 -233 -214 -49 -44 -103 -93 -121 -110 -47 -44 -223 -206
-255 -235 -15 -14 -67 -61 -116 -105 -48 -44 -102 -93 -120 -110 -38 -36 -208
-193 -245 -226 -37 -33 -186 -169 -234 -214 -35 -32 -111 -87 -125 -91 -3 0
-17 -6 -31 -12 -75 -31 -169 -41 -264 -28 -50 7 -162 50 -187 72 -10 10 -18
14 -18 11 0 -18 -103 85 -122 122 -7 15 -16 28 -19 31 -9 8 -41 93 -45 120
-11 68 -16 106 -16 115 0 29 15 111 23 127 5 10 7 18 4 18 -3 0 10 31 30 69
40 75 83 121 325 341 46 41 102 93 126 115 23 22 72 67 109 100 37 33 93 85
126 115 32 30 91 84 131 120 82 74 82 74 169 155 35 33 114 105 174 160 60 55
120 110 132 122 13 12 23 21 23 19 0 -1 29 25 64 58 34 34 94 88 131 121 37
33 81 73 97 89 l29 28 -23 20 c-23 20 -179 162 -230 209 -16 15 -65 60 -110
100 -44 41 -98 90 -118 109 -21 19 -75 69 -121 111 -46 42 -105 96 -131 120
-26 24 -75 70 -110 101 -35 31 -79 71 -99 90 -20 18 -78 71 -129 118 -51 47
-110 101 -130 120 -21 19 -80 73 -131 120 -52 47 -109 99 -126 116 -18 18 -33
30 -33 28 0 -2 -25 23 -55 54 -30 31 -55 60 -55 64 0 4 -6 13 -13 20 -23 23
-66 143 -71 196 -2 28 -7 56 -11 61 -3 6 -2 11 2 11 5 0 8 12 7 28 -3 89 54
211 139 294 35 35 70 68 78 74 15 11 104 47 154 62 52 16 204 6 265 -17z
m2470 -3811 c8 5 18 6 24 3 11 -8 105 -7 113 0 3 3 15 2 27 -3 13 -4 29 -5 36
0 7 4 25 4 40 0 15 -4 33 -4 40 0 7 4 25 4 41 0 15 -5 30 -6 33 -2 8 7 113 5
126 -3 6 -3 10 -2 10 4 0 6 11 6 30 1 17 -5 30 -5 30 0 0 5 13 5 30 0 17 -5
30 -5 30 0 0 5 13 5 30 0 17 -5 30 -5 30 0 0 5 13 5 30 0 17 -5 30 -5 30 0 0
5 13 5 30 0 17 -5 30 -5 30 0 0 5 13 5 30 0 17 -5 30 -5 30 0 0 5 13 5 30 0
17 -5 30 -5 30 0 0 5 13 5 30 0 17 -5 30 -5 30 0 0 5 12 5 28 1 29 -7 90 -6
99 3 3 2 15 1 27 -4 13 -4 29 -5 36 0 7 4 25 4 40 0 15 -4 33 -4 40 0 7 4 26
4 41 0 16 -5 31 -5 34 0 3 4 20 5 38 1 18 -5 41 -5 52 -1 11 4 29 4 41 0 11
-5 27 -5 34 0 7 4 25 4 40 0 15 -4 33 -4 40 0 7 4 25 4 41 0 15 -5 30 -6 33
-2 8 7 113 5 126 -3 6 -3 10 -2 10 4 0 6 11 6 30 1 17 -5 30 -5 30 0 0 5 13 5
30 0 17 -5 30 -5 30 0 0 5 13 5 30 0 17 -5 30 -5 30 0 0 5 13 5 30 0 17 -5 30
-5 30 0 0 5 13 5 30 0 17 -5 30 -5 30 0 0 5 13 5 30 0 17 -5 30 -5 30 0 0 5
13 5 30 0 17 -5 30 -5 30 0 0 5 13 5 30 0 17 -5 30 -5 30 0 0 5 12 5 28 1 29
-7 90 -6 99 3 3 2 15 1 27 -4 13 -4 29 -5 36 0 7 4 25 4 40 0 15 -4 33 -4 40
0 7 4 25 4 41 0 15 -5 30 -6 33 -3 3 3 32 5 63 4 57 -2 71 -2 96 0 6 0 46 -2
88 -5 90 -6 156 -27 224 -71 51 -33 125 -99 125 -112 0 -4 8 -16 18 -27 19
-22 60 -113 68 -150 6 -31 15 -89 16 -101 1 -37 -20 -162 -30 -180 -4 -5 -7
-15 -8 -21 -1 -7 -17 -36 -36 -65 -87 -135 -214 -212 -373 -225 -27 -3 -56 -7
-62 -9 -7 -2 -13 0 -13 5 0 6 -9 6 -25 0 -16 -6 -25 -6 -25 0 0 6 -9 6 -24 0
-15 -5 -27 -5 -34 2 -7 7 -16 6 -30 -1 -15 -8 -23 -8 -27 -1 -4 7 -11 7 -18 2
-7 -5 -21 -6 -32 -2 -11 4 -30 4 -42 -1 -15 -5 -23 -5 -23 2 0 6 -7 6 -19 -1
-14 -7 -22 -7 -26 0 -4 7 -11 7 -18 2 -7 -5 -21 -6 -32 -2 -11 4 -30 4 -42 -1
-15 -5 -23 -5 -23 2 0 6 -7 6 -19 -1 -14 -7 -22 -7 -26 0 -4 7 -11 7 -18 2 -7
-5 -21 -6 -32 -2 -11 4 -30 4 -42 -1 -15 -5 -23 -5 -23 2 0 6 -7 6 -19 -1 -14
-7 -22 -7 -26 0 -4 7 -11 7 -18 2 -7 -5 -21 -6 -32 -2 -11 4 -30 4 -42 -1 -15
-5 -23 -5 -23 2 0 6 -7 6 -19 -1 -14 -7 -22 -7 -26 0 -4 7 -11 7 -18 2 -7 -5
-21 -6 -32 -2 -11 4 -30 4 -42 -1 -15 -5 -23 -5 -23 2 0 6 -7 6 -19 -1 -14 -7
-22 -7 -26 0 -4 7 -11 7 -18 2 -7 -5 -21 -6 -32 -2 -11 4 -30 4 -42 -1 -15 -5
-23 -5 -23 2 0 6 -7 6 -19 -1 -14 -7 -22 -7 -26 0 -4 7 -11 7 -18 2 -7 -5 -21
-6 -32 -2 -11 4 -30 4 -42 -1 -15 -5 -23 -5 -23 2 0 6 -7 6 -19 -1 -14 -7 -22
-7 -26 0 -4 7 -11 7 -18 2 -7 -5 -21 -6 -32 -2 -11 4 -30 4 -42 -1 -15 -5 -23
-5 -23 2 0 6 -7 6 -19 -1 -14 -7 -22 -7 -26 0 -4 7 -11 7 -18 2 -7 -5 -21 -6
-32 -2 -11 4 -30 4 -42 -1 -15 -5 -23 -5 -23 2 0 6 -7 6 -19 -1 -14 -7 -22 -7
-26 0 -4 7 -11 7 -18 2 -7 -5 -21 -6 -32 -2 -11 4 -30 4 -42 -1 -15 -5 -23 -5
-23 2 0 6 -7 6 -19 -1 -14 -7 -22 -7 -26 0 -4 7 -11 7 -18 2 -7 -5 -21 -6 -32
-2 -11 4 -30 4 -42 -1 -15 -5 -23 -5 -23 2 0 6 -7 6 -19 -1 -14 -7 -22 -7 -26
0 -4 7 -11 7 -18 2 -7 -5 -21 -6 -32 -2 -11 4 -30 4 -42 -1 -15 -5 -23 -5 -23
2 0 6 -7 6 -19 -1 -14 -7 -22 -7 -26 0 -4 7 -11 7 -18 2 -7 -5 -21 -6 -32 -2
-11 4 -30 4 -42 -1 -15 -5 -23 -5 -23 2 0 6 -7 6 -19 -1 -14 -7 -22 -7 -26 0
-4 7 -11 7 -18 2 -7 -5 -21 -6 -32 -2 -11 4 -30 4 -42 -1 -15 -5 -23 -5 -23 2
0 6 -7 6 -19 -1 -14 -7 -22 -7 -26 0 -4 7 -11 7 -18 2 -7 -5 -21 -6 -32 -2
-11 4 -30 4 -42 -1 -15 -5 -23 -5 -23 2 0 6 -7 6 -19 -1 -14 -7 -22 -7 -27 1
-4 7 -10 7 -16 1 -7 -7 -19 -7 -33 -2 -13 5 -25 6 -28 4 -9 -9 -71 -10 -89 -2
-10 5 -18 5 -18 1 0 -8 -17 -8 -125 2 -78 7 -94 10 -128 24 -16 6 -30 11 -33
11 -23 0 -184 128 -184 147 0 4 -8 16 -19 27 -10 12 -31 53 -47 91 -24 61 -28
83 -28 175 1 114 22 192 70 257 13 17 24 34 24 37 0 10 72 76 116 106 52 36
153 71 223 76 30 2 57 6 59 9 3 2 12 0 21 -5 10 -5 23 -5 31 0z"/>
</g>
</svg>
